# xmcd
#
# Track frame offsets:
#	150
#	13211
#	27369
#	42713
#	59026
#	75357
#	88484
#	108537
#	124115
#	140855
#	157794
#	170088
#	184420
#	197966
#
# Disc length: 2868
#
# Revision: 1
# Processed by: cddbd v1.5.1PL0 Copyright (c) Steve Scherf et al.
# Submitted via: CDex 1.40Beta8
# Normalized: r0:TRMNUM
#
DISCID=d40b320e
DTITLE=Tião Carreiro and Paraíso - Homem até debaixo d´dágua
DYEAR=1980
DGENRE=Country
TTITLE0=MARRETA DO DESPREZO - Balanço
TTITLE1=NOITES DE ANGÚSTIA - Guarânia
TTITLE2=MULHER MODELO - Toada Milonga
TTITLE3=BERRANTE DE OURO - Toada
TTITLE4=AOS PÉS DO ALTAR - Guarânia
TTITLE5=TARDE DEMAIS - Rasqueado
TTITLE6=MINHA VIDA, MINHA CRUZ - Cururú
TTITLE7=CHEGA DE SUJEIRA - Pagode
TTITLE8=HOMEM ATÉ DE BAIXO D´DÁGUA - Cururú
TTITLE9=ADEUS RIO PIRACICABA - Toada de Cururú
TTITLE10=CANDIEIRO DA FAZENDA - Toada
TTITLE11=MINEIRINHO DE FIBRA - Pagode
TTITLE12=SERTÃO VAZIO - Querumana
TTITLE13=CARGA PESADA - Balanço
EXTD=YEAR: 1980 ID3G: 2
EXTT0=
EXTT1=
EXTT2=
EXTT3=
EXTT4=
EXTT5=
EXTT6=
EXTT7=
EXTT8=
EXTT9=
EXTT10=
EXTT11=
EXTT12=
EXTT13=
PLAYORDER=
